<svg width="50" height="50" viewBox="0 0 50 50" fill="none" xmlns="http://www.w3.org/2000/svg">
<path d="M49.9625 17.091L49.9438 16.9972C49.9313 16.9346 49.925 16.8783 49.9063 16.8158C49.8938 16.7783 49.8813 16.747 49.8751 16.7095C49.8563 16.6594 49.8438 16.6031 49.8188 16.5531C49.8063 16.5156 49.7876 16.4843 49.7689 16.4468C49.7439 16.3968 49.7189 16.353 49.6939 16.303C49.6752 16.2717 49.6564 16.2342 49.6314 16.2029C49.5815 16.1278 49.5252 16.0528 49.469 15.9777C49.4378 15.9402 49.4003 15.8964 49.3628 15.8589C49.3378 15.8276 49.3066 15.8026 49.2754 15.7776C49.2379 15.7401 49.1942 15.7088 49.1567 15.6775C49.1254 15.6525 49.0942 15.6275 49.0567 15.6025C49.0442 15.5962 49.0317 15.5837 49.0192 15.5775L26.1869 0.361271C25.8346 0.125719 25.4205 0 24.9969 0C24.5732 0 24.1591 0.125719 23.8068 0.361271L0.962019 15.59C0.949525 15.5962 0.937031 15.6087 0.924537 15.615C0.893303 15.64 0.862069 15.665 0.824588 15.69C0.780859 15.7213 0.743378 15.7588 0.705897 15.7901C0.674662 15.8151 0.649675 15.8464 0.618441 15.8714C0.58096 15.9089 0.543478 15.9465 0.512244 15.9902C0.449775 16.059 0.3998 16.1341 0.349825 16.2154C0.331084 16.2467 0.306097 16.2779 0.287356 16.3155C0.262369 16.3592 0.237381 16.4093 0.212394 16.4593C0.193653 16.4906 0.181159 16.5281 0.162419 16.5656C0.143678 16.6157 0.124937 16.6719 0.106197 16.722C0.093703 16.7595 0.0812092 16.7908 0.0749623 16.8283C0.0624686 16.8846 0.0499749 16.9471 0.0374812 17.0097L0.0187403 17.1035C0.00624659 17.1973 0 17.2911 0 17.3849V32.6136C0 32.7074 0.00624659 32.8012 0.0187403 32.8951L0.0374812 32.9889L0.0749623 33.1702C0.0874561 33.2078 0.093703 33.239 0.106197 33.2766C0.124937 33.3328 0.143678 33.3829 0.162419 33.4329C0.174912 33.4704 0.193653 33.5017 0.212394 33.5392C0.237381 33.5893 0.256122 33.633 0.287356 33.6831C0.306097 33.7143 0.324838 33.7519 0.349825 33.7831C0.381059 33.8269 0.406047 33.8707 0.443528 33.9145L0.51849 34.0083C0.549725 34.0458 0.587206 34.0896 0.624688 34.1271C0.649675 34.1584 0.68091 34.1834 0.712144 34.2084C0.749625 34.2459 0.793353 34.2772 0.830834 34.3085C0.862069 34.3335 0.893303 34.3585 0.930785 34.3835C0.943278 34.3898 0.955772 34.4023 0.968266 34.4086L23.8068 49.6373C24.1567 49.8749 24.5752 50 25 50C25.4123 50 25.8308 49.8812 26.1932 49.6373L49.0317 34.4086C49.0442 34.4023 49.0567 34.3898 49.0692 34.3835C49.1005 34.3585 49.1317 34.3335 49.1692 34.3085C49.2129 34.2772 49.2504 34.2397 49.2879 34.2084C49.3191 34.1834 49.3441 34.1521 49.3753 34.1271C49.4128 34.0896 49.4503 34.0521 49.4815 34.0083L49.5565 33.9145L49.6502 33.7831C49.6689 33.7519 49.6939 33.7206 49.7126 33.6831C49.7376 33.633 49.7626 33.5893 49.7876 33.5392C49.8063 33.508 49.8188 33.4704 49.8376 33.4329C49.8563 33.3829 49.8751 33.3266 49.8938 33.2766C49.9063 33.2453 49.9188 33.2078 49.925 33.1702C49.9438 33.114 49.95 33.0514 49.9625 32.9889L49.9813 32.8951C49.9938 32.8012 50 32.7074 50 32.6136V17.3724C49.9813 17.2786 49.975 17.1848 49.9625 17.091ZM27.1427 6.15881L43.9718 17.3787L36.4568 22.4069L27.1489 16.1779V6.15881H27.1427ZM22.8448 6.15881V16.1779L13.537 22.4069L6.02199 17.3787L22.8448 6.15881ZM4.29785 21.3938L9.67017 24.9899L4.29785 28.586V21.3938ZM22.8448 43.8147L6.02199 32.5949L13.537 27.5666L22.8448 33.7956V43.8147ZM24.9938 30.0682L17.3976 24.9899L24.9938 19.9053L32.59 24.9836L24.9938 30.0682ZM27.1427 43.8147V33.7956L36.4505 27.5666L43.9655 32.5949L27.1427 43.8147ZM45.6897 28.5797L40.3173 24.9836L45.6897 21.3875V28.5797Z" fill="#A0A0A0"/>
</svg>
